<svg width="70" height="70" viewBox="0 0 70 70" fill="none" xmlns="http://www.w3.org/2000/svg">
<circle cx="35" cy="35" r="35" fill="#80A7FF"/>
<path d="M47.375 25.125H21.5V21.75C21.5 21.4516 21.3815 21.1655 21.1705 20.9545C20.9595 20.7435 20.6734 20.625 20.375 20.625C20.0766 20.625 19.7905 20.7435 19.5795 20.9545C19.3685 21.1655 19.25 21.4516 19.25 21.75V44.25C19.25 44.5484 19.3685 44.8345 19.5795 45.0455C19.7905 45.2565 20.0766 45.375 20.375 45.375C20.6734 45.375 20.9595 45.2565 21.1705 45.0455C21.3815 44.8345 21.5 44.5484 21.5 44.25V39.75H50.75V44.25C50.75 44.5484 50.8685 44.8345 51.0795 45.0455C51.2905 45.2565 51.5766 45.375 51.875 45.375C52.1734 45.375 52.4595 45.2565 52.6705 45.0455C52.8815 44.8345 53 44.5484 53 44.25V30.75C53 29.2582 52.4074 27.8274 51.3525 26.7725C50.2976 25.7176 48.8668 25.125 47.375 25.125ZM21.5 27.375H31.625V37.5H21.5V27.375ZM33.875 37.5V27.375H47.375C48.2701 27.375 49.1286 27.7306 49.7615 28.3635C50.3944 28.9964 50.75 29.8549 50.75 30.75V37.5H33.875Z" fill="#FFCB3E"/>
<path d="M67 34.5C67 51.897 52.897 66 35.5 66C18.103 66 4 51.897 4 34.5C4 17.103 18.103 3 35.5 3C52.897 3 67 17.103 67 34.5ZM8.485 34.5C8.485 49.42 20.58 61.515 35.5 61.515C50.42 61.515 62.515 49.42 62.515 34.5C62.515 19.58 50.42 7.485 35.5 7.485C20.58 7.485 8.485 19.58 8.485 34.5Z" fill="#FFCB3E"/>
</svg>
