<svg width="29" height="28" viewBox="0 0 29 28" fill="none" xmlns="http://www.w3.org/2000/svg">
<circle cx="14.5" cy="14" r="14" fill="#80A7FF"/>
<path d="M22 14C22 14.1658 21.9342 14.3247 21.8169 14.4419C21.6997 14.5592 21.5408 14.625 21.375 14.625H15.125V20.875C15.125 21.0408 15.0592 21.1997 14.9419 21.3169C14.8247 21.4342 14.6658 21.5 14.5 21.5C14.3342 21.5 14.1753 21.4342 14.0581 21.3169C13.9408 21.1997 13.875 21.0408 13.875 20.875V14.625H7.625C7.45924 14.625 7.30027 14.5592 7.18306 14.4419C7.06585 14.3247 7 14.1658 7 14C7 13.8342 7.06585 13.6753 7.18306 13.5581C7.30027 13.4408 7.45924 13.375 7.625 13.375H13.875V7.125C13.875 6.95924 13.9408 6.80027 14.0581 6.68306C14.1753 6.56585 14.3342 6.5 14.5 6.5C14.6658 6.5 14.8247 6.56585 14.9419 6.68306C15.0592 6.80027 15.125 6.95924 15.125 7.125V13.375H21.375C21.5408 13.375 21.6997 13.4408 21.8169 13.5581C21.9342 13.6753 22 13.8342 22 14Z" fill="#191B21"/>
</svg>
