<svg width="26" height="25" viewBox="0 0 26 25" fill="none" xmlns="http://www.w3.org/2000/svg">
<path d="M24.7195 7.81249C24.7198 7.38423 24.6196 6.96186 24.4269 6.57942C24.2341 6.19699 23.9542 5.86517 23.6097 5.61072C23.2653 5.35626 22.8658 5.18627 22.4436 5.11445C22.0214 5.04263 21.5883 5.07098 21.179 5.19723C20.7698 5.32347 20.396 5.54408 20.0876 5.84127C19.7792 6.13846 19.545 6.50393 19.4037 6.90823C19.2625 7.31253 19.2182 7.74436 19.2744 8.16892C19.3306 8.59348 19.4857 8.9989 19.7273 9.35253L17.1111 12.5752L14.7585 7.16796C15.1876 6.80684 15.4952 6.32254 15.6398 5.78068C15.7843 5.23883 15.7588 4.66564 15.5666 4.1388C15.3744 3.61197 15.0248 3.15697 14.5653 2.83547C14.1058 2.51398 13.5586 2.34155 12.9978 2.34155C12.437 2.34155 11.8897 2.51398 11.4302 2.83547C10.9707 3.15697 10.6212 3.61197 10.429 4.1388C10.2368 4.66564 10.2113 5.23883 10.3558 5.78068C10.5003 6.32254 10.808 6.80684 11.237 7.16796L8.89036 12.5723L6.27415 9.3496C6.61023 8.85716 6.77615 8.26838 6.74665 7.67293C6.71716 7.07747 6.49386 6.50797 6.11076 6.05116C5.72766 5.59435 5.20576 5.27526 4.62455 5.1425C4.04333 5.00973 3.43465 5.07057 2.8912 5.31573C2.34775 5.56089 1.89933 5.97695 1.61421 6.50054C1.32909 7.02414 1.22291 7.62656 1.31184 8.21608C1.40077 8.8056 1.67994 9.3499 2.10682 9.76608C2.5337 10.1823 3.08491 10.4475 3.6765 10.5215L5.09056 19.0068C5.15135 19.3716 5.33957 19.703 5.62174 19.9421C5.90391 20.1812 6.26174 20.3124 6.63157 20.3125H19.3699C19.7397 20.3124 20.0975 20.1812 20.3797 19.9421C20.6619 19.703 20.8501 19.3716 20.9109 19.0068L22.324 10.5254C22.9853 10.4428 23.5936 10.1215 24.0348 9.62196C24.4759 9.1224 24.7194 8.47893 24.7195 7.81249ZM13.0007 3.90624C13.2325 3.90624 13.4591 3.97497 13.6518 4.10374C13.8445 4.2325 13.9947 4.41553 14.0834 4.62966C14.1721 4.84379 14.1953 5.07941 14.1501 5.30674C14.1049 5.53406 13.9932 5.74287 13.8294 5.90676C13.6655 6.07065 13.4567 6.18226 13.2293 6.22747C13.002 6.27269 12.7664 6.24948 12.5523 6.16079C12.3381 6.07209 12.1551 5.92189 12.0263 5.72917C11.8976 5.53646 11.8288 5.30989 11.8288 5.07812C11.8288 4.76731 11.9523 4.46924 12.1721 4.24947C12.3918 4.0297 12.6899 3.90624 13.0007 3.90624ZM2.84446 7.81249C2.84446 7.58072 2.91319 7.35415 3.04196 7.16143C3.17073 6.96872 3.35375 6.81852 3.56788 6.72982C3.78201 6.64112 4.01764 6.61792 4.24496 6.66313C4.47228 6.70835 4.68109 6.81996 4.84498 6.98385C5.00887 7.14774 5.12048 7.35655 5.1657 7.58387C5.21091 7.81119 5.18771 8.04682 5.09901 8.26095C5.01031 8.47508 4.86011 8.6581 4.6674 8.78687C4.47468 8.91564 4.24811 8.98437 4.01634 8.98437C3.70554 8.98437 3.40747 8.8609 3.1877 8.64113C2.96793 8.42136 2.84446 8.12329 2.84446 7.81249ZM21.9851 8.98437C21.7533 8.98437 21.5267 8.91564 21.334 8.78687C21.1413 8.6581 20.9911 8.47508 20.9024 8.26095C20.8137 8.04682 20.7905 7.81119 20.8357 7.58387C20.8809 7.35655 20.9926 7.14774 21.1565 6.98385C21.3203 6.81996 21.5291 6.70835 21.7565 6.66313C21.9838 6.61792 22.2194 6.64112 22.4335 6.72982C22.6477 6.81852 22.8307 6.96872 22.9595 7.16143C23.0882 7.35415 23.157 7.58072 23.157 7.81249C23.157 8.12329 23.0335 8.42136 22.8137 8.64113C22.594 8.8609 22.2959 8.98437 21.9851 8.98437Z" fill="#FFCB3E"/>
</svg>
