<svg width="26" height="25" viewBox="0 0 26 25" fill="none" xmlns="http://www.w3.org/2000/svg">
<path d="M13 7.03125C14.0787 7.03125 14.9531 6.15681 14.9531 5.07812C14.9531 3.99944 14.0787 3.125 13 3.125C11.9213 3.125 11.0469 3.99944 11.0469 5.07812C11.0469 6.15681 11.9213 7.03125 13 7.03125Z" stroke="#E8E8E8" stroke-linecap="round" stroke-linejoin="round"/>
<path d="M21.9844 9.76562C23.0631 9.76562 23.9375 8.89118 23.9375 7.8125C23.9375 6.73382 23.0631 5.85938 21.9844 5.85938C20.9057 5.85938 20.0312 6.73382 20.0312 7.8125C20.0312 8.89118 20.9057 9.76562 21.9844 9.76562Z" stroke="#E8E8E8" stroke-linecap="round" stroke-linejoin="round"/>
<path d="M4.01562 9.76562C5.09431 9.76562 5.96875 8.89118 5.96875 7.8125C5.96875 6.73382 5.09431 5.85938 4.01562 5.85938C2.93694 5.85938 2.0625 6.73382 2.0625 7.8125C2.0625 8.89118 2.93694 9.76562 4.01562 9.76562Z" stroke="#E8E8E8" stroke-linecap="round" stroke-linejoin="round"/>
<path d="M12.2197 6.87012L9.09277 14.0625L5.24609 9.32812" stroke="#E8E8E8" stroke-linecap="round" stroke-linejoin="round"/>
<path d="M20.7529 9.32812L16.9063 14.0625L13.7793 6.87012" stroke="#E8E8E8" stroke-linecap="round" stroke-linejoin="round"/>
<path d="M4.33594 9.73926L5.85937 18.8789C5.88987 19.0612 5.98403 19.2268 6.12511 19.3463C6.26618 19.4657 6.44504 19.5312 6.62988 19.5312H19.3682C19.553 19.5312 19.7319 19.4657 19.8729 19.3463C20.014 19.2268 20.1082 19.0612 20.1387 18.8789L21.6621 9.73926" stroke="#E8E8E8" stroke-linecap="round" stroke-linejoin="round"/>
</svg>
