<svg width="70" height="70" viewBox="0 0 70 70" fill="none" xmlns="http://www.w3.org/2000/svg">
<circle cx="35" cy="35" r="35" fill="#80A7FF"/>
<path d="M48.5 33C48.5 33.2984 48.3815 33.5845 48.1705 33.7955C47.9595 34.0065 47.6734 34.125 47.375 34.125H36.125V45.375C36.125 45.6734 36.0065 45.9595 35.7955 46.1705C35.5845 46.3815 35.2984 46.5 35 46.5C34.7016 46.5 34.4155 46.3815 34.2045 46.1705C33.9935 45.9595 33.875 45.6734 33.875 45.375V34.125H22.625C22.3266 34.125 22.0405 34.0065 21.8295 33.7955C21.6185 33.5845 21.5 33.2984 21.5 33C21.5 32.7016 21.6185 32.4155 21.8295 32.2045C22.0405 31.9935 22.3266 31.875 22.625 31.875H33.875V20.625C33.875 20.3266 33.9935 20.0405 34.2045 19.8295C34.4155 19.6185 34.7016 19.5 35 19.5C35.2984 19.5 35.5845 19.6185 35.7955 19.8295C36.0065 20.0405 36.125 20.3266 36.125 20.625V31.875H47.375C47.6734 31.875 47.9595 31.9935 48.1705 32.2045C48.3815 32.4155 48.5 32.7016 48.5 33Z" fill="#FFCB3E"/>
</svg>
