<svg width="70" height="70" viewBox="0 0 70 70" fill="none" xmlns="http://www.w3.org/2000/svg">
<g opacity="0.2">
<circle cx="35" cy="35" r="35" fill="#80A7FF"/>
<path d="M47.4345 20.5689C46.0299 19.1643 44.1249 18.3752 42.1386 18.3752C40.1522 18.3752 38.2472 19.1643 36.8427 20.5689L22.5692 34.8409C21.194 36.2515 20.43 38.1471 20.4425 40.117C20.4551 42.087 21.2433 43.9726 22.6364 45.3655C24.0295 46.7585 25.9153 47.5464 27.8852 47.5587C29.8552 47.571 31.7507 46.8067 33.1611 45.4314L47.4359 31.1593C48.8381 29.7537 49.6255 27.8492 49.6252 25.8638C49.625 23.8784 48.8371 21.9741 47.4345 20.5689ZM31.5706 43.8409C30.5881 44.8236 29.2553 45.3758 27.8656 45.3759C26.476 45.3761 25.1431 44.8242 24.1604 43.8416C23.1776 42.859 22.6255 41.5263 22.6253 40.1366C22.6252 38.7469 23.1771 37.4141 24.1597 36.4314L30.5005 30.0906L37.9114 37.5001L31.5706 43.8409ZM45.8441 29.5689L39.5005 35.9096L32.0923 28.5001L38.4345 22.1593C39.421 21.1956 40.7476 20.6597 42.1266 20.6678C43.5056 20.6758 44.8259 21.2272 45.801 22.2024C46.7761 23.1775 47.3275 24.4977 47.3356 25.8768C47.3437 27.2558 46.8077 28.5824 45.8441 29.5689ZM43.6742 26.5792C43.7788 26.6836 43.8618 26.8077 43.9184 26.9443C43.975 27.0809 44.0042 27.2273 44.0042 27.3751C44.0042 27.5229 43.975 27.6693 43.9184 27.8059C43.8618 27.9425 43.7788 28.0666 43.6742 28.171L40.2992 31.546C40.1947 31.6505 40.0706 31.7333 39.9341 31.7898C39.7976 31.8463 39.6512 31.8753 39.5035 31.8752C39.3557 31.8752 39.2094 31.846 39.073 31.7894C38.9365 31.7328 38.8125 31.6499 38.708 31.5453C38.6036 31.4408 38.5208 31.3167 38.4643 31.1802C38.4078 31.0437 38.3788 30.8974 38.3789 30.7496C38.3789 30.6019 38.4081 30.4556 38.4647 30.3191C38.5213 30.1826 38.6042 30.0586 38.7087 29.9542L42.0837 26.5792C42.2947 26.3683 42.5807 26.2499 42.879 26.2499C43.1772 26.2499 43.4633 26.3683 43.6742 26.5792Z" fill="#FFCB3E"/>
</g>
</svg>
