<svg width="70" height="70" viewBox="0 0 70 70" fill="none" xmlns="http://www.w3.org/2000/svg">
<g opacity="0.2">
<circle cx="35" cy="35" r="35" fill="#80A7FF"/>
<path d="M41.4688 21.7148C39.7317 19.7087 37.7767 17.9022 35.6398 16.3288C35.4507 16.1963 35.2253 16.1252 34.9944 16.1252C34.7634 16.1252 34.5381 16.1963 34.3489 16.3288C32.216 17.9029 30.2648 19.7093 28.5312 21.7148C24.6655 26.1543 22.625 30.8343 22.625 35.2499C22.625 38.532 23.9288 41.6796 26.2496 44.0004C28.5703 46.3211 31.7179 47.6249 35 47.6249C38.2821 47.6249 41.4297 46.3211 43.7504 44.0004C46.0712 41.6796 47.375 38.532 47.375 35.2499C47.375 30.8343 45.3345 26.1543 41.4688 21.7148ZM35 45.3749C32.3156 45.372 29.742 44.3043 27.8438 42.4061C25.9457 40.5079 24.878 37.9343 24.875 35.2499C24.875 27.202 32.6755 20.4843 35 18.6562C37.3245 20.4843 45.125 27.1991 45.125 35.2499C45.122 37.9343 44.0543 40.5079 42.1562 42.4061C40.258 44.3043 37.6844 45.372 35 45.3749ZM42.8595 36.5634C42.5678 38.1928 41.7839 39.6937 40.6133 40.8641C39.4426 42.0345 37.9415 42.8181 36.312 43.1095C36.2502 43.1194 36.1876 43.1245 36.125 43.1249C35.8428 43.1249 35.5709 43.0187 35.3633 42.8276C35.1557 42.6365 35.0275 42.3743 35.0042 42.0931C34.9808 41.8118 35.064 41.5321 35.2372 41.3093C35.4104 41.0866 35.6611 40.937 35.9394 40.8904C38.2695 40.4981 40.2467 38.5209 40.6419 36.1865C40.6919 35.8922 40.8567 35.6299 41.1001 35.4571C41.3435 35.2844 41.6456 35.2154 41.9398 35.2654C42.2341 35.3154 42.4965 35.4802 42.6692 35.7236C42.8419 35.967 42.9109 36.2691 42.8609 36.5634H42.8595Z" fill="#FFCB3E"/>
</g>
</svg>
