<svg width="103" height="103" viewBox="0 0 103 103" fill="none" xmlns="http://www.w3.org/2000/svg">
<circle cx="51.5" cy="51.5" r="51.5" fill="#575757"/>
<path d="M35.7246 59V45.4H37.1246V57.6H42.7846V59H35.7246ZM46.504 59.02L42.784 50.2H44.304L46.844 56.74L49.364 50.2H50.884L47.184 59.02H46.504ZM57.7307 59L64.7707 51.9C64.9707 51.7 65.1374 51.4867 65.2707 51.26C65.404 51.02 65.504 50.7733 65.5707 50.52C65.6374 50.2533 65.6707 49.98 65.6707 49.7C65.6707 49.1267 65.5307 48.6133 65.2507 48.16C64.9707 47.6933 64.5907 47.32 64.1107 47.04C63.6307 46.76 63.0974 46.62 62.5107 46.62C61.8974 46.62 61.344 46.78 60.8507 47.1C60.3574 47.42 59.9774 47.8333 59.7107 48.34C59.444 48.8333 59.3374 49.36 59.3907 49.92H57.9707C57.9307 49.0133 58.1174 48.2067 58.5307 47.5C58.9574 46.78 59.524 46.2133 60.2307 45.8C60.9507 45.3867 61.7307 45.18 62.5707 45.18C63.384 45.18 64.1374 45.38 64.8307 45.78C65.5374 46.1667 66.104 46.7 66.5307 47.38C66.9574 48.06 67.1707 48.84 67.1707 49.72C67.1707 50.1333 67.1174 50.5267 67.0107 50.9C66.9174 51.2733 66.7707 51.6267 66.5707 51.96C66.384 52.2933 66.144 52.6067 65.8507 52.9L61.1107 57.6H67.3107V59H57.7307Z" fill="#FFF9EC"/>
</svg>
