<svg width="103" height="103" viewBox="0 0 103 103" fill="none" xmlns="http://www.w3.org/2000/svg">
<circle cx="51.5" cy="51.5" r="51.5" fill="#575757"/>
<path d="M36.5547 59V45.4H37.9547V57.6H43.6147V59H36.5547ZM47.3341 59.02L43.6141 50.2H45.1341L47.6741 56.74L50.1941 50.2H51.7141L48.0141 59.02H47.3341ZM62.4408 59.2C62.0008 59.2 61.5741 59.1467 61.1608 59.04C60.7608 58.9333 60.3741 58.7733 60.0008 58.56C59.6408 58.3333 59.3141 58.04 59.0208 57.68C58.7408 57.32 58.5008 56.8867 58.3008 56.38L59.7608 55.98C60.0274 56.5533 60.4074 57 60.9008 57.32C61.3941 57.64 61.8874 57.8 62.3808 57.8C63.2474 57.8 63.9674 57.5533 64.5408 57.06C65.1274 56.5533 65.4208 55.8733 65.4208 55.02C65.4208 54.1933 65.1408 53.5667 64.5808 53.14C64.0341 52.7 63.3208 52.48 62.4408 52.48H61.4808V51.02H62.4408C63.2541 51.02 63.9141 50.8333 64.4208 50.46C64.9408 50.0867 65.2008 49.54 65.2008 48.82C65.2008 48.0733 64.9274 47.5 64.3808 47.1C63.8474 46.7 63.1808 46.5 62.3808 46.5C61.9274 46.5 61.4741 46.62 61.0208 46.86C60.5674 47.1 60.2141 47.4733 59.9608 47.98L58.4808 47.62C58.7208 47.02 59.0474 46.54 59.4608 46.18C59.8741 45.82 60.3408 45.56 60.8608 45.4C61.3808 45.24 61.9074 45.16 62.4408 45.16C63.1608 45.16 63.8341 45.3067 64.4608 45.6C65.1008 45.88 65.6141 46.2933 66.0008 46.84C66.4008 47.3733 66.6008 48.0267 66.6008 48.8C66.6008 49.44 66.4608 50 66.1808 50.48C65.9141 50.96 65.5274 51.3533 65.0208 51.66C65.6208 51.9933 66.0874 52.4467 66.4208 53.02C66.7674 53.58 66.9408 54.2533 66.9408 55.04C66.9408 55.9067 66.7274 56.6533 66.3008 57.28C65.8741 57.9067 65.3141 58.3867 64.6208 58.72C63.9408 59.04 63.2141 59.2 62.4408 59.2Z" fill="#FFF9EC"/>
</svg>
