<svg width="26" height="25" viewBox="0 0 26 25" fill="none" xmlns="http://www.w3.org/2000/svg">
<g id="MagnifyingGlass">
<path id="Vector" d="M22.9278 21.3224L18.0382 16.4337C19.4554 14.7322 20.1621 12.5499 20.0113 10.3407C19.8604 8.13143 18.8637 6.06539 17.2284 4.57234C15.593 3.07929 13.4451 2.27418 11.2313 2.32449C9.01745 2.3748 6.90827 3.27666 5.34247 4.84247C3.77666 6.40827 2.8748 8.51745 2.82449 10.7313C2.77418 12.9451 3.57929 15.093 5.07234 16.7284C6.56539 18.3637 8.63143 19.3604 10.8407 19.5113C13.0499 19.6621 15.2322 18.9554 16.9337 17.5382L21.8224 22.4278C21.895 22.5004 21.9811 22.558 22.076 22.5973C22.1708 22.6366 22.2725 22.6568 22.3751 22.6568C22.4778 22.6568 22.5794 22.6366 22.6742 22.5973C22.7691 22.558 22.8553 22.5004 22.9278 22.4278C23.0004 22.3553 23.058 22.2691 23.0973 22.1742C23.1366 22.0794 23.1568 21.9778 23.1568 21.8751C23.1568 21.7725 23.1366 21.6708 23.0973 21.576C23.058 21.4811 23.0004 21.395 22.9278 21.3224ZM4.40635 10.9376C4.40635 9.54695 4.81873 8.18753 5.59133 7.03125C6.36393 5.87496 7.46207 4.97375 8.74686 4.44157C10.0317 3.90939 11.4454 3.77015 12.8093 4.04145C14.1733 4.31276 15.4261 4.98242 16.4094 5.96576C17.3928 6.94909 18.0624 8.20194 18.3337 9.56587C18.6051 10.9298 18.4658 12.3436 17.9336 13.6283C17.4015 14.9131 16.5002 16.0113 15.344 16.7839C14.1877 17.5565 12.8283 17.9689 11.4376 17.9689C9.57343 17.9668 7.78621 17.2253 6.46804 15.9072C5.14987 14.589 4.40842 12.8018 4.40635 10.9376Z" fill="#FFCB3E"/>
</g>
</svg>
