<svg width="103" height="103" viewBox="0 0 103 103" fill="none" xmlns="http://www.w3.org/2000/svg">
<path d="M41.5047 57V46.12H42.6247V55.88H47.1527V57H41.5047ZM50.1282 57.016L47.1522 49.96H48.3682L50.4002 55.192L52.4162 49.96H53.6322L50.6722 57.016H50.1282ZM60.4696 57V47.256H58.9016V46.28L61.5896 45.992V57H60.4696Z" fill="#D3D3D3"/>
<path d="M41.5047 57V46.12H42.6247V55.88H47.1527V57H41.5047ZM50.1282 57.016L47.1522 49.96H48.3682L50.4002 55.192L52.4162 49.96H53.6322L50.6722 57.016H50.1282ZM60.4696 57V47.256H58.9016V46.28L61.5896 45.992V57H60.4696Z" fill="#D3D3D3"/>
<path d="M41.5047 57V46.12H42.6247V55.88H47.1527V57H41.5047ZM50.1282 57.016L47.1522 49.96H48.3682L50.4002 55.192L52.4162 49.96H53.6322L50.6722 57.016H50.1282ZM60.4696 57V47.256H58.9016V46.28L61.5896 45.992V57H60.4696Z" fill="#D3D3D3"/>
<circle cx="51.5" cy="51.5" r="51.5" fill="#80A7FF"/>
<path d="M33.5086 58V44.4H36.5086V55.28H42.3886V58H33.5086ZM45.7514 58L42.3914 49.18H45.4114L47.5114 55.48L49.6114 49.18H52.6514L49.2914 58H45.7514ZM58.8461 58L64.2261 51.12C64.4128 50.8933 64.6128 50.6467 64.8261 50.38C65.0394 50.1133 65.2194 49.8333 65.3661 49.54C65.5261 49.2333 65.6061 48.9267 65.6061 48.62C65.6061 48.2867 65.5394 48.0067 65.4061 47.78C65.2728 47.54 65.0928 47.36 64.8661 47.24C64.6394 47.1067 64.3728 47.04 64.0661 47.04C63.7461 47.04 63.4594 47.1133 63.2061 47.26C62.9528 47.3933 62.7528 47.6067 62.6061 47.9C62.4728 48.1933 62.3928 48.58 62.3661 49.06H59.5461C59.5728 48.18 59.7528 47.3733 60.0861 46.64C60.4328 45.9067 60.9328 45.32 61.5861 44.88C62.2528 44.4267 63.0728 44.2 64.0461 44.2C64.9261 44.2 65.6994 44.3867 66.3661 44.76C67.0328 45.12 67.5461 45.6333 67.9061 46.3C68.2794 46.9667 68.4661 47.74 68.4661 48.62C68.4661 49.3 68.3394 49.92 68.0861 50.48C67.8461 51.0267 67.5394 51.54 67.1661 52.02C66.7928 52.5 66.4061 52.9867 66.0061 53.48L64.5661 55.28H68.6861V58H58.8461Z" fill="#FFCB3E"/>
</svg>
