<svg width="103" height="103" viewBox="0 0 103 103" fill="none" xmlns="http://www.w3.org/2000/svg">
<path d="M41.5047 57V46.12H42.6247V55.88H47.1527V57H41.5047ZM50.1282 57.016L47.1522 49.96H48.3682L50.4002 55.192L52.4162 49.96H53.6322L50.6722 57.016H50.1282ZM60.4696 57V47.256H58.9016V46.28L61.5896 45.992V57H60.4696Z" fill="#292E37"/>
<path d="M41.5047 57V46.12H42.6247V55.88H47.1527V57H41.5047ZM50.1282 57.016L47.1522 49.96H48.3682L50.4002 55.192L52.4162 49.96H53.6322L50.6722 57.016H50.1282ZM60.4696 57V47.256H58.9016V46.28L61.5896 45.992V57H60.4696Z" fill="#292E37"/>
<path d="M41.5047 57V46.12H42.6247V55.88H47.1527V57H41.5047ZM50.1282 57.016L47.1522 49.96H48.3682L50.4002 55.192L52.4162 49.96H53.6322L50.6722 57.016H50.1282ZM60.4696 57V47.256H58.9016V46.28L61.5896 45.992V57H60.4696Z" fill="#292E37"/>
<circle cx="51.5" cy="51.5" r="51.5" fill="#80A7FF"/>
<path d="M36.3426 58V44.4H39.3426V55.28H45.2226V58H36.3426ZM48.5854 58L45.2254 49.18H48.2454L50.3454 55.48L52.4454 49.18H55.4854L52.1254 58H48.5854ZM63.6601 58V47.96H62.0801V45.9L66.6601 44.4V58H63.6601Z" fill="#FFCB3E"/>
</svg>
