<svg width="26" height="25" viewBox="0 0 26 25" fill="none" xmlns="http://www.w3.org/2000/svg">
<path d="M15.3445 20.1563C13.9328 19.4366 12.7476 18.3406 11.9198 16.9894C11.092 15.6383 10.6539 14.0846 10.6539 12.5C10.6539 10.9154 11.092 9.36172 11.9198 8.01057C12.7476 6.65941 13.9328 5.56343 15.3445 4.84375C14.0344 4.17586 12.5748 3.85533 11.1054 3.91282C9.63598 3.97032 8.2059 4.40392 6.95197 5.17214C5.69804 5.94037 4.66223 7.01751 3.94362 8.30051C3.22501 9.58352 2.84766 11.0295 2.84766 12.5C2.84766 13.9705 3.22501 15.4165 3.94362 16.6995C4.66223 17.9825 5.69804 19.0596 6.95197 19.8279C8.2059 20.5961 9.63598 21.0297 11.1054 21.0872C12.5748 21.1447 14.0344 20.8241 15.3445 20.1563Z" stroke="#E8E8E8" stroke-linecap="round" stroke-linejoin="round"/>
<path d="M17.8301 12.5L16.125 9.60254L19.3076 10.3906L21.4365 7.8125L21.6973 11.1963L24.7188 12.5L21.6973 13.8037L21.4365 17.1875L19.3076 14.6094L16.125 15.3975L17.8301 12.5Z" stroke="#E8E8E8" stroke-linecap="round" stroke-linejoin="round"/>
</svg>
