<svg width="26" height="25" viewBox="0 0 26 25" fill="none" xmlns="http://www.w3.org/2000/svg">
<path d="M16.125 20.1563C16.1251 20.3003 16.0854 20.4416 16.0103 20.5645C15.9351 20.6873 15.8275 20.7871 15.6992 20.8526C14.3808 21.5291 12.9194 21.8797 11.4375 21.875C8.9511 21.875 6.56653 20.8873 4.80837 19.1292C3.05022 17.371 2.0625 14.9864 2.0625 12.5C2.0625 10.0136 3.05022 7.62907 4.80837 5.87092C6.56653 4.11277 8.9511 3.12505 11.4375 3.12505C12.9194 3.12035 14.3808 3.47097 15.6992 4.14751C15.8274 4.21298 15.9351 4.3126 16.0103 4.43539C16.0854 4.55817 16.1252 4.69934 16.1252 4.84331C16.1252 4.98728 16.0854 5.12845 16.0103 5.25123C15.9351 5.37402 15.8274 5.47364 15.6992 5.53911C14.4155 6.19323 13.3376 7.1896 12.5848 8.41807C11.832 9.64655 11.4336 11.0593 11.4336 12.5C11.4336 13.9408 11.832 15.3535 12.5848 16.582C13.3376 17.8105 14.4155 18.8069 15.6992 19.461C15.8273 19.5264 15.9349 19.626 16.01 19.7487C16.0851 19.8714 16.1249 20.0124 16.125 20.1563ZM25.0283 11.7823L22.4404 10.6661L22.2148 7.752C22.2026 7.59692 22.1444 7.44902 22.0476 7.32724C21.9508 7.20547 21.8198 7.11536 21.6715 7.06847C21.5232 7.02158 21.3642 7.02004 21.215 7.06405C21.0658 7.10805 20.9331 7.1956 20.834 7.31548L19.0186 9.51372L16.3125 8.84477C16.1633 8.80805 16.0066 8.81614 15.862 8.86803C15.7173 8.91992 15.5912 9.0133 15.4994 9.1365C15.4076 9.2597 15.3541 9.40724 15.3457 9.56066C15.3373 9.71409 15.3743 9.86658 15.4521 9.99907L16.9238 12.5L15.4521 15.001C15.3743 15.1335 15.3373 15.286 15.3457 15.4394C15.3541 15.5929 15.4076 15.7404 15.4994 15.8636C15.5912 15.9868 15.7173 16.0802 15.862 16.1321C16.0066 16.184 16.1633 16.192 16.3125 16.1553L19.0186 15.4864L20.834 17.6846C20.9331 17.8045 21.0658 17.892 21.215 17.936C21.3642 17.98 21.5232 17.9785 21.6715 17.9316C21.8198 17.8847 21.9508 17.7946 22.0476 17.6728C22.1444 17.5511 22.2026 17.4032 22.2148 17.2481L22.4404 14.334L25.0283 13.2178C25.1687 13.1575 25.2883 13.0574 25.3723 12.9298C25.4563 12.8022 25.5011 12.6528 25.5011 12.5C25.5011 12.3473 25.4563 12.1979 25.3723 12.0703C25.2883 11.9427 25.1687 11.8426 25.0283 11.7823Z" fill="#FFCB3E"/>
</svg>
