<svg width="70" height="70" viewBox="0 0 70 70" fill="none" xmlns="http://www.w3.org/2000/svg">
<circle cx="35" cy="35" r="35" fill="#80A7FF"/>
<path d="M35.5 3C40.5863 3 45.5969 4.23165 50.1035 6.58966L48.0243 10.5636C44.1593 8.54129 39.8621 7.485 35.5 7.485V3Z" fill="#FFCB3E"/>
<path d="M38.5031 21.2479L22.2475 37.5035C19.4173 40.3336 19.4173 44.9222 22.2475 47.7524L22.2486 47.7535C25.0788 50.5837 29.6674 50.5837 32.4975 47.7535L48.7531 31.498C51.5832 28.6678 51.5833 24.0792 48.7531 21.2491L48.752 21.2479C45.9218 18.4178 41.3332 18.4178 38.5031 21.2479Z" stroke="#FFCB3E" stroke-width="2" stroke-linecap="round" stroke-linejoin="round"/>
<path d="M30.375 29.375L40.625 39.625" stroke="#FFCB3E" stroke-width="2" stroke-linecap="round" stroke-linejoin="round"/>
<path d="M40.625 31.9375L44.4688 28.0938" stroke="#FFCB3E" stroke-width="2" stroke-linecap="round" stroke-linejoin="round"/>
</svg>
