<svg width="26" height="25" viewBox="0 0 26 25" fill="none" xmlns="http://www.w3.org/2000/svg">
<path d="M6.73047 19.4698C7.31827 18.312 8.21519 17.3396 9.32182 16.6604C10.4284 15.9811 11.7015 15.6216 13 15.6216C14.2985 15.6216 15.5716 15.9811 16.6782 16.6604C17.7848 17.3396 18.6817 18.312 19.2695 19.4698" stroke="#E8E8E8" stroke-linecap="round" stroke-linejoin="round"/>
<path d="M13 21.875C18.1777 21.875 22.375 17.6777 22.375 12.5C22.375 7.32233 18.1777 3.125 13 3.125C7.82233 3.125 3.625 7.32233 3.625 12.5C3.625 17.6777 7.82233 21.875 13 21.875Z" stroke="#E8E8E8" stroke-linecap="round" stroke-linejoin="round"/>
<path d="M13 15.625C15.1574 15.625 16.9062 13.8761 16.9062 11.7188C16.9062 9.56139 15.1574 7.8125 13 7.8125C10.8426 7.8125 9.09375 9.56139 9.09375 11.7188C9.09375 13.8761 10.8426 15.625 13 15.625Z" stroke="#E8E8E8" stroke-linecap="round" stroke-linejoin="round"/>
</svg>
