<svg width="26" height="25" viewBox="0 0 26 25" fill="none" xmlns="http://www.w3.org/2000/svg">
<path d="M17.2969 11.7188C17.2969 12.5686 17.0449 13.3993 16.5727 14.106C16.1006 14.8126 15.4295 15.3633 14.6443 15.6885C13.8592 16.0138 12.9952 16.0989 12.1617 15.9331C11.3282 15.7673 10.5626 15.358 9.96165 14.7571C9.36073 14.1562 8.95149 13.3905 8.78569 12.557C8.6199 11.7235 8.70499 10.8596 9.03021 10.0744C9.35543 9.28926 9.90617 8.61818 10.6128 8.14603C11.3194 7.67388 12.1502 7.42188 13 7.42188C14.1392 7.42317 15.2314 7.87629 16.0369 8.68183C16.8425 9.48737 17.2956 10.5795 17.2969 11.7188ZM23.1563 12.5C23.1563 14.5087 22.5606 16.4723 21.4446 18.1425C20.3286 19.8127 18.7424 21.1144 16.8866 21.8832C15.0308 22.6519 12.9887 22.853 11.0186 22.4611C9.0485 22.0692 7.23883 21.1019 5.81845 19.6816C4.39807 18.2612 3.43079 16.4515 3.0389 14.4814C2.64702 12.5113 2.84815 10.4692 3.61685 8.61337C4.38556 6.75756 5.68731 5.17137 7.35749 4.05539C9.02768 2.9394 10.9913 2.34375 13 2.34375C15.6927 2.34659 18.2744 3.41754 20.1784 5.32159C22.0825 7.22564 23.1534 9.80727 23.1563 12.5ZM21.5938 12.5C21.5925 11.3433 21.358 10.1987 20.9042 9.13473C20.4505 8.07073 19.7868 7.10917 18.9529 6.30755C18.1191 5.50593 17.1321 4.88072 16.051 4.4693C14.9699 4.05788 13.817 3.8687 12.6611 3.91309C8.06153 4.09082 4.39356 7.92187 4.40625 12.5244C4.41066 14.6197 5.18342 16.6405 6.57813 18.2041C7.14612 17.3803 7.86762 16.6737 8.70313 16.123C8.77436 16.076 8.85905 16.0536 8.94423 16.0592C9.02942 16.0649 9.1104 16.0983 9.17481 16.1543C10.2365 17.0726 11.5933 17.578 12.9971 17.578C14.4008 17.578 15.7576 17.0726 16.8193 16.1543C16.8837 16.0983 16.9647 16.0649 17.0499 16.0592C17.1351 16.0536 17.2198 16.076 17.291 16.123C18.1276 16.6734 18.8501 17.38 19.4189 18.2041C20.8206 16.6348 21.5948 14.6041 21.5938 12.5Z" fill="#FFCB3E"/>
</svg>
